<svg width="165" height="43" viewBox="0 0 165 43" fill="none" xmlns="http://www.w3.org/2000/svg">
<path d="M21.2963 42.5439C25.5024 42.5391 29.6127 41.2874 33.1077 38.9471C36.6026 36.6068 39.3253 33.2829 40.9316 29.3955C42.5379 25.5082 42.9557 21.2319 42.1322 17.1071C41.3087 12.9824 39.2808 9.19434 36.3049 6.22183C33.329 3.24933 29.5387 1.22578 25.413 0.406969C21.2873 -0.411845 17.0114 0.0108276 13.1259 1.62156C9.2404 3.2323 5.91961 5.95879 3.58329 9.45641C1.24697 12.954 2.74688e-06 17.0658 0 21.2719C0.00159581 24.067 0.553706 26.8344 1.62481 29.4161C2.69591 31.9978 4.26502 34.3432 6.24256 36.3185C8.22011 38.2938 10.5673 39.8602 13.1503 40.9284C15.7332 41.9965 18.5012 42.5455 21.2963 42.5439V42.5439Z" fill="#FF3C3C"/>
<path d="M5.3241 21.1504L8.89778 17.6132L12.4472 21.1504H5.3241Z" fill="white"/>
<path d="M9.82141 16.823L14.2338 21.1503H19.5579L12.4591 14.0637L9.82141 16.823Z" fill="white"/>
<path d="M16.9325 16.823L21.3571 21.1503H26.669L19.5702 14.0637L16.9325 16.823Z" fill="white"/>
<path d="M36.5513 22.3417L32.9776 25.8911L29.4282 22.3417H36.5513Z" fill="white"/>
<path d="M32.0537 26.7419L27.6413 22.4025H22.3173L29.4282 29.5012L32.0537 26.7419Z" fill="white"/>
<path d="M24.9428 26.7419L20.5304 22.4025H15.2063L22.3172 29.5012L24.9428 26.7419Z" fill="white"/>
<path d="M59.0387 25.9274V20.9437L56.6076 25.0036H55.3921L52.961 21.0774V25.9396H50.5299V16.5192H52.7179L56.0241 21.9526L59.2575 16.5192H61.4455V25.9274H59.0387Z" fill="#FF3C3C"/>
<path d="M65.7241 25.5262C64.9641 25.1058 64.3307 24.4894 63.8896 23.7412C63.4485 22.993 63.2158 22.1404 63.2158 21.2718C63.2158 20.4033 63.4485 19.5506 63.8896 18.8025C64.3307 18.0543 64.9641 17.4379 65.7241 17.0175C66.5581 16.6076 67.4751 16.3945 68.4044 16.3945C69.3337 16.3945 70.2506 16.6076 71.0846 17.0175C71.8446 17.4379 72.478 18.0543 72.9192 18.8025C73.3603 19.5506 73.5929 20.4033 73.5929 21.2718C73.5929 22.1404 73.3603 22.993 72.9192 23.7412C72.478 24.4894 71.8446 25.1058 71.0846 25.5262C70.2506 25.9361 69.3337 26.1492 68.4044 26.1492C67.4751 26.1492 66.5581 25.9361 65.7241 25.5262V25.5262ZM69.6989 23.6178C70.0845 23.3881 70.4031 23.0611 70.6227 22.6697C70.8435 22.2323 70.96 21.7497 70.9631 21.2597C70.9599 20.7736 70.8434 20.2949 70.6227 19.8618C70.4183 19.4633 70.1013 19.1336 69.7111 18.9137C69.3155 18.6922 68.8698 18.576 68.4165 18.576C67.9632 18.576 67.5175 18.6922 67.122 18.9137C66.7367 19.14 66.4213 19.468 66.2103 19.8618C65.9897 20.2949 65.8731 20.7736 65.87 21.2597C65.873 21.7497 65.9895 22.2323 66.2103 22.6697C66.4288 23.058 66.7426 23.3843 67.122 23.6178C67.5196 23.8327 67.9645 23.9453 68.4165 23.9453C68.8685 23.9453 69.3134 23.8327 69.7111 23.6178H69.6989Z" fill="#FF3C3C"/>
<path d="M77.1746 18.6342H74.2816V16.5192H82.7175V18.6342H79.8366V25.9274H77.1746V18.6342Z" fill="#FF3C3C"/>
<path d="M83.9816 16.5192H86.6436V25.9274H83.9816V16.5192Z" fill="#FF3C3C"/>
<path d="M90.8739 25.5263C90.2965 25.2162 89.7879 24.7925 89.3784 24.2808C88.969 23.7692 88.6672 23.18 88.4912 22.5487C88.3152 21.9174 88.2687 21.2571 88.3544 20.6074C88.44 19.9577 88.6562 19.332 88.9898 18.7679C89.4493 18.0259 90.1001 17.4213 90.8739 17.0175C91.7095 16.6058 92.6286 16.3916 93.5602 16.3916C94.4918 16.3916 95.4109 16.6058 96.2466 17.0175C97.0065 17.438 97.64 18.0544 98.0811 18.8025C98.5222 19.5507 98.7548 20.4034 98.7548 21.2719C98.7548 22.1404 98.5222 22.9931 98.0811 23.7413C97.64 24.4895 97.0065 25.1058 96.2466 25.5263C95.4109 25.9381 94.4918 26.1522 93.5602 26.1522C92.6286 26.1522 91.7095 25.9381 90.8739 25.5263V25.5263ZM94.8122 23.5814C95.1974 23.3552 95.5129 23.0271 95.7239 22.6333C95.9378 22.1948 96.0421 21.711 96.0278 21.2233C96.0323 20.7363 95.9153 20.2558 95.6874 19.8254C95.483 19.4269 95.166 19.0972 94.7757 18.8773C94.3824 18.6558 93.9387 18.5394 93.4873 18.5394C93.0359 18.5394 92.5921 18.6558 92.1988 18.8773C91.8091 19.1018 91.4893 19.43 91.275 19.8254C91.0581 20.2594 90.9457 20.7381 90.9468 21.2233C90.9456 21.7124 91.058 22.195 91.275 22.6333C91.4947 23.0247 91.8132 23.3517 92.1988 23.5814C92.5988 23.8028 93.0484 23.9189 93.5055 23.9189C93.9626 23.9189 94.4123 23.8028 94.8122 23.5814V23.5814Z" fill="#FF3C3C"/>
<path d="M109.399 16.5192V25.9274H107.247L103.066 20.9194V25.9274H100.452V16.5192H102.652L106.809 21.5272V16.5192H109.399Z" fill="#FF3C3C"/>
<path d="M126.307 16.5192L123.244 25.9274H120.399L118.588 20.2023L116.692 25.9274H113.872L110.821 16.5192H113.568L115.476 22.5239L117.47 16.5192H119.901L121.797 22.5969L123.779 16.5192H126.307Z" fill="#FF3C3C"/>
<path d="M133.527 24.1041H129.54L128.799 25.9274H126.076L130.233 16.5192H132.846L137.016 25.9274H134.244L133.527 24.1041ZM132.749 22.135L131.534 19.1326L130.318 22.135H132.749Z" fill="#FF3C3C"/>
<path d="M142.218 23.4234H140.772V25.9274H138.11V16.5191H142.413C143.175 16.5073 143.932 16.6521 144.637 16.9445C145.07 17.1503 145.458 17.4394 145.78 17.7954C146.085 18.1513 146.317 18.5645 146.46 19.011C146.607 19.4698 146.653 19.955 146.594 20.4331C146.532 20.9055 146.375 21.3605 146.132 21.7702C145.806 22.2986 145.333 22.7209 144.771 22.9858L146.801 25.9395H143.944L142.218 23.4234ZM143.434 18.9745C143.088 18.7062 142.655 18.5762 142.218 18.6098H140.723V21.3569H142.218C142.655 21.3905 143.088 21.2605 143.434 20.9923C143.576 20.8698 143.689 20.7158 143.762 20.5425C143.834 20.3739 143.867 20.191 143.859 20.0077C143.875 19.8172 143.846 19.6256 143.774 19.4485C143.693 19.2694 143.578 19.1082 143.434 18.9745V18.9745Z" fill="#FF3C3C"/>
<path d="M155.844 23.8853V25.9396H148.296V16.5192H155.686V18.5734H150.934V20.1536H155.115V22.1471H150.934V23.8853H155.844Z" fill="#FF3C3C"/>
<path d="M158.677 25.8302C158.054 25.6878 157.462 25.4368 156.926 25.0888L157.801 23.1439C158.736 23.7282 159.811 24.0476 160.913 24.0677C161.934 24.0677 162.445 23.8124 162.445 23.3019C162.447 23.1663 162.405 23.0336 162.323 22.9251C162.246 22.8186 162.134 22.7414 162.007 22.7063C161.555 22.5264 161.087 22.3881 160.609 22.293C160.008 22.1665 159.416 22.0042 158.835 21.8068C158.368 21.6284 157.951 21.3408 157.619 20.9681C157.254 20.5301 157.071 19.9688 157.108 19.4C157.1 18.8502 157.261 18.3111 157.57 17.8563C157.921 17.3592 158.412 16.9783 158.98 16.7623C159.711 16.4734 160.492 16.3329 161.278 16.349C161.892 16.3483 162.504 16.4218 163.101 16.5678C163.66 16.6804 164.198 16.8815 164.693 17.1634L163.867 19.1448C163.071 18.685 162.172 18.4342 161.253 18.4154C160.835 18.3759 160.413 18.456 160.038 18.6464C159.927 18.7052 159.834 18.7935 159.771 18.9017C159.724 18.9643 159.69 19.0356 159.672 19.1115C159.653 19.1873 159.65 19.2661 159.663 19.3432C159.675 19.4203 159.703 19.4941 159.744 19.5602C159.786 19.6264 159.84 19.6835 159.904 19.7282C159.956 19.7747 160.019 19.8081 160.087 19.8255C160.54 19.9935 161.008 20.1197 161.484 20.2023C162.087 20.3215 162.68 20.484 163.259 20.6885C163.725 20.8669 164.142 21.1545 164.475 21.5272C164.838 21.9571 165.025 22.5088 164.997 23.071C165.012 23.6254 164.85 24.17 164.535 24.6268C164.185 25.1239 163.694 25.5049 163.125 25.7208C162.4 26.0143 161.622 26.155 160.84 26.1341C160.109 26.1242 159.382 26.0221 158.677 25.8302V25.8302Z" fill="#FF3C3C"/>
</svg>
